<svg fill="#000000" version="1.1" id="Capa_1" xmlns="http://www.w3.org/2000/svg" xmlns:xlink="http://www.w3.org/1999/xlink" 
	 width="800px" height="800px" viewBox="0 0 31.341 31.341"
	 xml:space="preserve">
<g>
	<path d="M30.528,2.236H0.812c-0.448,0-0.812,0.364-0.812,0.812c0,0.448,0.364,0.812,0.812,0.812h13.535l-3.021,8.219H1.934
		c-0.448,0-0.812,0.364-0.812,0.812s0.364,0.812,0.812,0.812h9.503l-3.23,8.785H1.934c-0.448,0-0.812,0.364-0.812,0.812
		s0.364,0.812,0.812,0.812h6.388c-0.002,0.001-0.003,0.002-0.005,0.003c-0.11,0.001-0.217,0.03-0.322,0.073
		c-0.001,0-0.002,0-0.003,0.001c-0.122,0.051-0.233,0.124-0.333,0.214c-0.001,0.001-0.002,0.002-0.003,0.003
		c-0.09,0.08-0.17,0.174-0.24,0.277c-0.005,0.007-0.01,0.014-0.015,0.021c-0.059,0.089-0.11,0.183-0.153,0.282
		c-0.006,0.013-0.011,0.026-0.016,0.039c-0.039,0.09-0.069,0.184-0.09,0.281c-0.006,0.026-0.011,0.052-0.015,0.078
		c-0.018,0.083-0.028,0.168-0.028,0.255c0,0.01,0.001,0.02,0.001,0.03c0,0.085,0.011,0.169,0.029,0.252
		c0.004,0.02,0.009,0.04,0.014,0.06c0.021,0.094,0.052,0.186,0.093,0.274c0.005,0.011,0.01,0.022,0.016,0.033
		c0.045,0.098,0.1,0.191,0.163,0.279c0.004,0.005,0.008,0.01,0.012,0.015c0.072,0.094,0.153,0.181,0.242,0.259
		c0.002,0.002,0.004,0.004,0.006,0.005c0.105,0.088,0.22,0.163,0.343,0.225c0.002,0.001,0.003,0.002,0.005,0.002
		c0.112,0.055,0.229,0.098,0.35,0.128c0.008,0.002,0.016,0.004,0.024,0.006c0.11,0.026,0.221,0.041,0.333,0.046
		c0.02,0.001,0.04,0.002,0.06,0.002h13.535c0.448,0,0.812-0.364,0.812-0.812s-0.364-0.812-0.812-0.812H19.18l3.23-8.785h6.306
		c0.448,0,0.812-0.364,0.812-0.812s-0.364-0.812-0.812-0.812h-6.189l3.021-8.219h5.469c0.448,0,0.812-0.364,0.812-0.812
		C31.341,2.6,30.976,2.236,30.528,2.236z M18.367,13.691l-3.23,8.785h-3.23l-3.23-8.785L11.7,5.484h7.938L18.367,13.691z"/>
</g>
</svg>
